<?xml version="1.0" encoding="utf-8"?>
<!-- Generator: Adobe Illustrator 16.0.0, SVG Export Plug-In . SVG Version: 6.00 Build 0)  -->
<!DOCTYPE svg PUBLIC "-//W3C//DTD SVG 1.1//EN" "http://www.w3.org/Graphics/SVG/1.1/DTD/svg11.dtd">
<svg version="1.1"
	 id="Layer_1" xmlns:dc="http://purl.org/dc/elements/1.1/" xmlns:cc="http://creativecommons.org/ns#" xmlns:rdf="http://www.w3.org/1999/02/22-rdf-syntax-ns#" xmlns:svg="http://www.w3.org/2000/svg" xmlns:sodipodi="http://sodipodi.sourceforge.net/DTD/sodipodi-0.dtd" xmlns:inkscape="http://www.inkscape.org/namespaces/inkscape" inkscape:version="0.48.1 " sodipodi:docname="Ohio_University_Logo.svg"
	 xmlns="http://www.w3.org/2000/svg" xmlns:xlink="http://www.w3.org/1999/xlink" x="0px" y="0px" width="128.823px"
	 height="80.975px" viewBox="1.045 0.418 128.823 80.975" enable-background="new 1.045 0.418 128.823 80.975" xml:space="preserve"
	>
<sodipodi:namedview  id="namedview123" borderopacity="1" pagecolor="#ffffff" bordercolor="#666666" objecttolerance="10" gridtolerance="10" guidetolerance="10" showgrid="false" fit-margin-top="0" fit-margin-left="0" inkscape:zoom="4.7839804" inkscape:cx="161.99899" inkscape:cy="43.702999" inkscape:pageopacity="0" inkscape:window-width="1680" inkscape:pageshadow="2" inkscape:window-height="994" fit-margin-right="0" fit-margin-bottom="0" inkscape:window-x="-4" inkscape:window-y="-4" inkscape:window-maximized="1" inkscape:current-layer="Layer_1">
	</sodipodi:namedview>
<g id="g3931" transform="matrix(0.99282552,0,0,0.99282552,-6.4010366,-4.5460657)">
	<path id="path5" inkscape:connector-curvature="0" fill="rgba(255, 255, 255, 0.5)" d="M81.386,18.198c20.232,1.599,37.247,9.063,45.647,19.301
		h2.047c-8.677-11.425-27.29-19.71-49.375-21.076C80.357,16.963,80.916,17.57,81.386,18.198L81.386,18.198z"/>
	<path id="path7" inkscape:connector-curvature="0" fill="rgba(255, 255, 255, 0.5)" d="M66.346,16.447c-21.893,1.448-40.315,9.702-48.936,21.052
		h2.047c8.346-10.172,25.194-17.608,45.253-19.272C65.155,17.601,65.693,16.992,66.346,16.447L66.346,16.447z"/>
	<polygon id="polygon9" fill="rgba(255, 255, 255, 0.5)" points="79.076,50.025 76.979,50.025 76.979,46.959 76.979,46.959 79.076,46.959 	"/>
	<polygon id="polygon11" fill="rgba(255, 255, 255, 0.5)" points="73.271,50.025 71.177,50.025 71.177,46.959 71.177,46.959 73.271,46.959 	"/>
	<polygon id="polygon13" fill="rgba(255, 255, 255, 0.5)" points="67.661,50.025 65.567,50.025 65.567,46.959 65.567,46.959 67.661,46.959 	"/>
	<polygon id="polygon15" fill="rgba(255, 255, 255, 0.5)" points="62.169,50.025 60.076,50.025 60.076,46.959 60.076,46.959 62.169,46.959 	"/>
	<polygon id="polygon17" fill="rgba(255, 255, 255, 0.5)" points="84.847,50.025 82.75,50.025 82.75,46.959 82.75,46.959 84.847,46.959 	"/>
	<polygon id="polygon19" fill="rgba(255, 255, 255, 0.5)" points="90.645,50.025 88.551,50.025 88.551,46.959 88.551,46.959 90.645,46.959 	"/>
	<polygon id="polygon21" fill="rgba(255, 255, 255, 0.5)" points="96.283,50.025 94.187,50.025 94.187,46.959 94.187,46.959 96.283,46.959 	"/>
	<path id="path23" inkscape:connector-curvature="0" fill="rgba(255, 255, 255, 0.5)" d="M72.181,34.815c0,0.947,0.768,1.711,1.715,1.711
		c0.943,0,1.712-0.764,1.712-1.711c0-0.942-0.769-1.712-1.712-1.712C72.948,33.104,72.181,33.873,72.181,34.815L72.181,34.815z"/>
	<polygon id="polygon25" fill="rgba(255, 255, 255, 0.5)" points="79.076,55.256 76.979,55.256 76.979,52.191 76.979,52.191 79.076,52.191 	"/>
	<polygon id="polygon27" fill="rgba(255, 255, 255, 0.5)" points="73.271,55.256 71.177,55.256 71.177,52.191 71.177,52.191 73.271,52.191 	"/>
	<polygon id="polygon29" fill="rgba(255, 255, 255, 0.5)" points="67.661,55.256 65.567,55.256 65.567,52.191 65.567,52.191 67.661,52.191 	"/>
	<polygon id="polygon31" fill="rgba(255, 255, 255, 0.5)" points="62.169,55.256 60.076,55.256 60.076,52.191 60.076,52.191 62.169,52.191 	"/>
	<polygon id="polygon33" fill="rgba(255, 255, 255, 0.5)" points="84.847,55.256 82.75,55.256 82.75,52.191 82.75,52.191 84.847,52.191 	"/>
	<polygon id="polygon35" fill="rgba(255, 255, 255, 0.5)" points="90.645,55.256 88.551,55.256 88.551,52.191 88.551,52.191 90.645,52.191 	"/>
	<polygon id="polygon37" fill="rgba(255, 255, 255, 0.5)" points="96.283,55.256 94.187,55.256 94.187,52.191 94.187,52.191 96.283,52.191 	"/>
	<polygon id="polygon39" fill="rgba(255, 255, 255, 0.5)" points="73.271,60.548 71.177,60.548 71.177,57.482 71.177,57.482 73.271,57.482 	"/>
	<polygon id="polygon41" fill="rgba(255, 255, 255, 0.5)" points="67.661,60.548 65.567,60.548 65.567,57.482 65.567,57.482 67.661,57.482 	"/>
	<polygon id="polygon43" fill="rgba(255, 255, 255, 0.5)" points="62.169,60.548 60.076,60.548 60.076,57.482 60.076,57.482 62.169,57.482 	"/>
	<polygon id="polygon45" fill="rgba(255, 255, 255, 0.5)" points="84.847,60.548 82.75,60.548 82.75,57.482 82.75,57.482 84.847,57.482 	"/>
	<polygon id="polygon47" fill="rgba(255, 255, 255, 0.5)" points="90.645,60.548 88.551,60.548 88.551,57.482 88.551,57.482 90.645,57.482 	"/>
	<polygon id="polygon49" fill="rgba(255, 255, 255, 0.5)" points="96.283,60.548 94.187,60.548 94.187,57.482 94.187,57.482 96.283,57.482 	"/>
	<path id="path51" inkscape:connector-curvature="0" fill="rgba(255, 255, 255, 0.5)" d="M74.338,16.991L73.231,5l-0.926,11.862
		c-2.09,0.329-3.711,2.058-3.875,4.195l3.055-0.901h3.769l2.37,0.858C77.458,19.103,76.124,17.521,74.338,16.991L74.338,16.991z"/>
	<polygon id="polygon53" fill="rgba(255, 255, 255, 0.5)" points="28.534,56.361 26.905,56.361 26.905,53.763 26.905,53.763 28.534,53.763 	"/>
	<polygon id="polygon55" fill="rgba(255, 255, 255, 0.5)" points="32.789,56.361 31.16,56.361 31.16,53.763 31.16,53.763 32.789,53.763 	"/>
	<polygon id="polygon57" fill="rgba(255, 255, 255, 0.5)" points="36.949,56.361 35.319,56.361 35.319,53.763 35.319,53.763 36.949,53.763 	"/>
	<polygon id="polygon59" fill="rgba(255, 255, 255, 0.5)" points="28.534,51.651 26.905,51.651 26.905,49.057 26.905,49.057 28.534,49.057 	"/>
	<polygon id="polygon61" fill="rgba(255, 255, 255, 0.5)" points="32.789,51.651 31.16,51.651 31.16,49.057 31.16,49.057 32.789,49.057 	"/>
	<polygon id="polygon63" fill="rgba(255, 255, 255, 0.5)" points="36.949,51.651 35.319,51.651 35.319,49.057 35.319,49.057 36.949,49.057 	"/>
	<polygon id="polygon65" fill="rgba(255, 255, 255, 0.5)" points="28.534,61.111 26.905,61.111 26.905,58.519 26.905,58.519 28.534,58.519 	"/>
	<polygon id="polygon67" fill="rgba(255, 255, 255, 0.5)" points="36.949,61.111 35.319,61.111 35.319,58.519 35.319,58.519 36.949,58.519 	"/>
	<path id="path69" inkscape:connector-curvature="0" fill="rgba(255, 255, 255, 0.5)" d="M31.01,46.298H31C31,46.298,31.006,46.341,31.01,46.298
		L31.01,46.298z"/>
	<path id="path71" inkscape:connector-curvature="0" fill="rgba(255, 255, 255, 0.5)" d="M32.842,46.145c0-0.518-0.385-0.94-0.868-0.94
		c-0.479,0-0.868,0.422-0.868,0.94c0,0.018,0,1.069,0,1.069h1.741L32.842,46.145L32.842,46.145z"/>
	<polygon id="polygon73" fill="rgba(255, 255, 255, 0.5)" points="125.181,56.361 123.552,56.361 123.552,53.763 123.552,53.763 125.181,53.763 	"/>
	<polygon id="polygon75" fill="rgba(255, 255, 255, 0.5)" points="129.437,56.361 127.807,56.361 127.807,53.763 127.807,53.763 129.437,53.763 	"/>
	<polygon id="polygon77" fill="rgba(255, 255, 255, 0.5)" points="133.595,56.361 131.966,56.361 131.966,53.763 131.966,53.763 133.595,53.763 	"/>
	<polygon id="polygon79" fill="rgba(255, 255, 255, 0.5)" points="125.181,51.651 123.552,51.651 123.552,49.057 123.552,49.057 125.181,49.057 	"/>
	<polygon id="polygon81" fill="rgba(255, 255, 255, 0.5)" points="129.437,51.651 127.807,51.651 127.807,49.057 127.807,49.057 129.437,49.057 	"/>
	<polygon id="polygon83" fill="rgba(255, 255, 255, 0.5)" points="133.595,51.651 131.966,51.651 131.966,49.057 131.966,49.057 133.595,49.057 	"/>
	<polygon id="polygon85" fill="rgba(255, 255, 255, 0.5)" points="125.181,61.111 123.552,61.111 123.552,58.519 123.552,58.519 125.181,58.519 	"/>
	<polygon id="polygon87" fill="rgba(255, 255, 255, 0.5)" points="133.595,61.111 131.966,61.111 131.966,58.519 131.966,58.519 133.595,58.519 	"/>
	<path id="path89" inkscape:connector-curvature="0" fill="rgba(255, 255, 255, 0.5)" d="M127.653,46.298h-0.008
		C127.646,46.298,127.653,46.341,127.653,46.298L127.653,46.298z"/>
	<path id="path91" inkscape:connector-curvature="0" fill="rgba(255, 255, 255, 0.5)" d="M129.493,46.145c0-0.518-0.393-0.94-0.872-0.94
		c-0.479,0-0.871,0.422-0.871,0.94c0,0.018,0.003,1.069,0.003,1.069h1.74V46.145L129.493,46.145z"/>
	<path id="path93" inkscape:connector-curvature="0" fill="rgba(255, 255, 255, 0.5)" d="M98.676,78.015h1.899v-1.451h1.081v-1.376h-1.081v-4.792
		h-2.249l-3.057,4.552v1.616h3.406L98.676,78.015L98.676,78.015z M81.626,78.146c2.522,0,2.958-1.965,2.958-3.94
		c0-1.975-0.437-3.938-2.958-3.938s-2.958,1.963-2.958,3.938C78.668,76.18,79.105,78.146,81.626,78.146L81.626,78.146z
		 M47.549,78.015h2.03v-7.619h-1.79l-2.587,1.682l0.906,1.375l1.441-1.026V78.015L47.549,78.015z M61.946,72.458
		c0,0.752,0.601,1.387,1.31,1.627c-0.819,0.251-1.506,0.775-1.506,1.889c0,1.561,1.332,2.172,2.969,2.172
		c1.593,0,2.991-0.643,2.991-2.281c0-1.146-0.709-1.614-1.539-1.877c0.666-0.272,1.255-0.83,1.255-1.77
		c0-1.344-1.114-1.953-2.62-1.953S61.946,70.832,61.946,72.458L61.946,72.458z M137.254,46.699l-2.97,0.003v-2.515h-2.815v-1.79
		h-5.667v1.787H123l-0.01,2.422h-2.626l0.006,17.883h6.975v-4.656h2.483v4.656h7.067v1.515h-8.843
		C118.512,77.16,96.56,86.56,72.201,86.56c-24.353,0-44.232-9.387-53.67-20.556H7.5l0.033-19.373l2.695-0.014l0.028-2.988h3.101
		l0.008-2.518h23.391l0.012,2.049l2.817,0.016l0.007,2.515h1.026l-0.011,1.007l-2.968,0.003v-2.515h-2.816v-1.79H29.16v1.787h-2.805
		l-0.01,2.422h-2.627l0.007,17.883h6.97v-4.656h2.487v4.656h10.58V44.412l-0.673-0.653l6.271-6.26l17.458,0.025l0.615-0.025v-5.773
		l-0.562,0.007v-0.594l0.804-0.782h0.911V23.65l-0.847-0.193l-0.185-0.628l2.89-0.814v8.342l1.629-0.021V21.85h2.676v8.507h1.629
		v-8.342l1.973,0.814l-0.186,0.536l-0.8,0.193v6.799h0.664l0.647,0.736l0.021,0.633l-8.81-0.011v7.671h8.206l-0.006-1.858
		l1.014-0.002l2.233-0.026H94.23l6.27,6.26l-0.701,0.653H81.334H66.818H56.181V64.49h19.968l0.008-4.695
		c0-0.769,0.758-1.395,1.687-1.395c0.932,0,1.685,0.626,1.685,1.395v4.695h24.609l-0.041-17.858l2.826-0.014l-0.025-2.988h3.105
		l0.003-2.518h23.395l0.016,2.064h2.814l0.003,2.5h1.011L137.254,46.699L137.254,46.699L137.254,46.699z M73.435,23.247
		c-0.447,0-0.808,0.361-0.808,0.806c0,0.447,0.361,0.808,0.808,0.808c0.446,0,0.811-0.361,0.811-0.808
		C74.246,23.608,73.881,23.247,73.435,23.247L73.435,23.247z M98.807,75.188h-2.096l2.074-3.219L98.807,75.188L98.807,75.188z
		 M81.626,76.771c-0.917,0-0.993-1.352-0.993-2.565c0-1.21,0.077-2.563,0.993-2.563c0.917,0,0.994,1.353,0.994,2.563
		C82.62,75.417,82.544,76.771,81.626,76.771L81.626,76.771z M65.745,75.788c0,0.623-0.469,0.983-1.048,0.983
		c-0.535,0-0.982-0.405-0.982-0.95c0-0.59,0.393-0.905,0.884-1.135C65.112,74.838,65.745,75.11,65.745,75.788L65.745,75.788z
		 M63.78,72.47c0-0.524,0.404-0.896,0.895-0.896c0.448,0,0.917,0.263,0.917,0.809c0,0.513-0.327,0.786-0.862,1.091
		C64.261,73.267,63.78,73.049,63.78,72.47L63.78,72.47z"/>
</g>
</svg>
