<?xml version="1.0" encoding="UTF-8" standalone="no"?>
<!-- Generator: Adobe Illustrator 13.0.1, SVG Export Plug-In . SVG Version: 6.00 Build 14948)  -->

<svg
   xmlns:dc="http://purl.org/dc/elements/1.1/"
   xmlns:cc="http://creativecommons.org/ns#"
   xmlns:rdf="http://www.w3.org/1999/02/22-rdf-syntax-ns#"
   xmlns:svg="http://www.w3.org/2000/svg"
   xmlns="http://www.w3.org/2000/svg"
   xmlns:sodipodi="http://sodipodi.sourceforge.net/DTD/sodipodi-0.dtd"
   xmlns:inkscape="http://www.inkscape.org/namespaces/inkscape"
   version="1.1"
   id="Layer_1"
   x="0px"
   y="0px"
   width="323.99799"
   height="87.405998"
   viewBox="0 0 323.99799 87.405998"
   enable-background="new 0 0 343.5 112.5"
   xml:space="preserve"
   inkscape:version="0.48.1 "
   sodipodi:docname="Ohio_University_Logo.svg"><metadata
   id="metadata127"><rdf:RDF><cc:Work
       rdf:about=""><dc:format>image/svg+xml</dc:format><dc:type
         rdf:resource="http://purl.org/dc/dcmitype/StillImage" /></cc:Work></rdf:RDF></metadata><defs
   id="defs125">
	
	
	
	
	
	
	
	
	
	
	
	
	
	
	
	
	
	
	
	
	
	
	
	
	
	
	
	
	
	
	
	
	
	
	
	
	
	
	
	
	
	
	
	
	
	
	
	
	
	
	
	
	
	
	
	
	
	
	
</defs><sodipodi:namedview
   pagecolor="#ffffff"
   bordercolor="#666666"
   borderopacity="1"
   objecttolerance="10"
   gridtolerance="10"
   guidetolerance="10"
   inkscape:pageopacity="0"
   inkscape:pageshadow="2"
   inkscape:window-width="1680"
   inkscape:window-height="994"
   id="namedview123"
   showgrid="false"
   fit-margin-top="0"
   fit-margin-left="0"
   fit-margin-right="0"
   fit-margin-bottom="0"
   inkscape:zoom="4.7839804"
   inkscape:cx="161.99899"
   inkscape:cy="43.702999"
   inkscape:window-x="-4"
   inkscape:window-y="-4"
   inkscape:window-maximized="1"
   inkscape:current-layer="Layer_1" />
<g
   id="g3931"
   transform="matrix(0.99282552,0,0,0.99282552,-6.4010366,-4.5460657)"><path
     d="m 81.386,18.198 c 20.232,1.599 37.247,9.063 45.647,19.301 h 2.047 c -8.677,-11.425 -27.29,-19.71 -49.375,-21.076 0.652,0.54 1.211,1.147 1.681,1.775 l 0,0 z"
     id="path5"
     inkscape:connector-curvature="0"
     style="fill:#00694e;fill-opacity:1" /><path
     d="M 66.346,16.447 C 44.453,17.895 26.031,26.149 17.41,37.499 h 2.047 C 27.803,27.327 44.651,19.891 64.71,18.227 c 0.445,-0.626 0.983,-1.235 1.636,-1.78 l 0,0 z"
     id="path7"
     inkscape:connector-curvature="0"
     style="fill:#00694e;fill-opacity:1" /><polygon
     points="79.076,50.025 76.979,50.025 76.979,46.959 76.979,46.959 79.076,46.959 "
     id="polygon9"
     style="fill:#00694e;fill-opacity:1" /><polygon
     points="73.271,50.025 71.177,50.025 71.177,46.959 71.177,46.959 73.271,46.959 "
     id="polygon11"
     style="fill:#00694e;fill-opacity:1" /><polygon
     points="67.661,50.025 65.567,50.025 65.567,46.959 65.567,46.959 67.661,46.959 "
     id="polygon13"
     style="fill:#00694e;fill-opacity:1" /><polygon
     points="62.169,50.025 60.076,50.025 60.076,46.959 60.076,46.959 62.169,46.959 "
     id="polygon15"
     style="fill:#00694e;fill-opacity:1" /><polygon
     points="84.847,50.025 82.75,50.025 82.75,46.959 82.75,46.959 84.847,46.959 "
     id="polygon17"
     style="fill:#00694e;fill-opacity:1" /><polygon
     points="90.645,50.025 88.551,50.025 88.551,46.959 88.551,46.959 90.645,46.959 "
     id="polygon19"
     style="fill:#00694e;fill-opacity:1" /><polygon
     points="96.283,50.025 94.187,50.025 94.187,46.959 94.187,46.959 96.283,46.959 "
     id="polygon21"
     style="fill:#00694e;fill-opacity:1" /><path
     d="m 72.181,34.815 c 0,0.947 0.768,1.711 1.715,1.711 0.943,0 1.712,-0.764 1.712,-1.711 0,-0.942 -0.769,-1.712 -1.712,-1.712 -0.948,10e-4 -1.715,0.77 -1.715,1.712 l 0,0 z"
     id="path23"
     inkscape:connector-curvature="0"
     style="fill:#00694e;fill-opacity:1" /><polygon
     points="79.076,55.256 76.979,55.256 76.979,52.191 76.979,52.191 79.076,52.191 "
     id="polygon25"
     style="fill:#00694e;fill-opacity:1" /><polygon
     points="73.271,55.256 71.177,55.256 71.177,52.191 71.177,52.191 73.271,52.191 "
     id="polygon27"
     style="fill:#00694e;fill-opacity:1" /><polygon
     points="67.661,55.256 65.567,55.256 65.567,52.191 65.567,52.191 67.661,52.191 "
     id="polygon29"
     style="fill:#00694e;fill-opacity:1" /><polygon
     points="62.169,55.256 60.076,55.256 60.076,52.191 60.076,52.191 62.169,52.191 "
     id="polygon31"
     style="fill:#00694e;fill-opacity:1" /><polygon
     points="84.847,55.256 82.75,55.256 82.75,52.191 82.75,52.191 84.847,52.191 "
     id="polygon33"
     style="fill:#00694e;fill-opacity:1" /><polygon
     points="90.645,55.256 88.551,55.256 88.551,52.191 88.551,52.191 90.645,52.191 "
     id="polygon35"
     style="fill:#00694e;fill-opacity:1" /><polygon
     points="96.283,55.256 94.187,55.256 94.187,52.191 94.187,52.191 96.283,52.191 "
     id="polygon37"
     style="fill:#00694e;fill-opacity:1" /><polygon
     points="73.271,60.548 71.177,60.548 71.177,57.482 71.177,57.482 73.271,57.482 "
     id="polygon39"
     style="fill:#00694e;fill-opacity:1" /><polygon
     points="67.661,60.548 65.567,60.548 65.567,57.482 65.567,57.482 67.661,57.482 "
     id="polygon41"
     style="fill:#00694e;fill-opacity:1" /><polygon
     points="62.169,60.548 60.076,60.548 60.076,57.482 60.076,57.482 62.169,57.482 "
     id="polygon43"
     style="fill:#00694e;fill-opacity:1" /><polygon
     points="84.847,60.548 82.75,60.548 82.75,57.482 82.75,57.482 84.847,57.482 "
     id="polygon45"
     style="fill:#00694e;fill-opacity:1" /><polygon
     points="90.645,60.548 88.551,60.548 88.551,57.482 88.551,57.482 90.645,57.482 "
     id="polygon47"
     style="fill:#00694e;fill-opacity:1" /><polygon
     points="96.283,60.548 94.187,60.548 94.187,57.482 94.187,57.482 96.283,57.482 "
     id="polygon49"
     style="fill:#00694e;fill-opacity:1" /><path
     d="M 74.338,16.991 73.231,5 72.305,16.862 c -2.09,0.329 -3.711,2.058 -3.875,4.195 l 3.055,-0.901 h 3.769 l 2.37,0.858 c -0.166,-1.911 -1.5,-3.493 -3.286,-4.023 l 0,0 z"
     id="path51"
     inkscape:connector-curvature="0"
     style="fill:#00694e;fill-opacity:1" /><polygon
     points="28.534,56.36 26.905,56.36 26.905,53.763 26.905,53.763 28.534,53.763 "
     id="polygon53"
     style="fill:#00694e;fill-opacity:1" /><polygon
     points="32.789,56.36 31.16,56.36 31.16,53.763 31.16,53.763 32.789,53.763 "
     id="polygon55"
     style="fill:#00694e;fill-opacity:1" /><polygon
     points="36.949,56.36 35.319,56.36 35.319,53.763 35.319,53.763 36.949,53.763 "
     id="polygon57"
     style="fill:#00694e;fill-opacity:1" /><polygon
     points="28.534,51.651 26.905,51.651 26.905,49.057 26.905,49.057 28.534,49.057 "
     id="polygon59"
     style="fill:#00694e;fill-opacity:1" /><polygon
     points="32.789,51.651 31.16,51.651 31.16,49.057 31.16,49.057 32.789,49.057 "
     id="polygon61"
     style="fill:#00694e;fill-opacity:1" /><polygon
     points="36.949,51.651 35.319,51.651 35.319,49.057 35.319,49.057 36.949,49.057 "
     id="polygon63"
     style="fill:#00694e;fill-opacity:1" /><polygon
     points="28.534,61.111 26.905,61.111 26.905,58.518 26.905,58.518 28.534,58.518 "
     id="polygon65"
     style="fill:#00694e;fill-opacity:1" /><polygon
     points="36.949,61.111 35.319,61.111 35.319,58.518 35.319,58.518 36.949,58.518 "
     id="polygon67"
     style="fill:#00694e;fill-opacity:1" /><path
     d="M 31.01,46.298 H 31 c 0,0 0.006,0.043 0.01,0 l 0,0 z"
     id="path69"
     inkscape:connector-curvature="0"
     style="fill:#00694e;fill-opacity:1" /><path
     d="m 32.842,46.145 c 0,-0.518 -0.385,-0.94 -0.868,-0.94 -0.479,0 -0.868,0.422 -0.868,0.94 0,0.018 0,1.069 0,1.069 h 1.741 l -0.005,-1.069 0,0 z"
     id="path71"
     inkscape:connector-curvature="0"
     style="fill:#00694e;fill-opacity:1" /><polygon
     points="125.181,56.36 123.552,56.36 123.552,53.763 123.552,53.763 125.181,53.763 "
     id="polygon73"
     style="fill:#00694e;fill-opacity:1" /><polygon
     points="129.437,56.36 127.807,56.36 127.807,53.763 127.807,53.763 129.437,53.763 "
     id="polygon75"
     style="fill:#00694e;fill-opacity:1" /><polygon
     points="133.595,56.36 131.966,56.36 131.966,53.763 131.966,53.763 133.595,53.763 "
     id="polygon77"
     style="fill:#00694e;fill-opacity:1" /><polygon
     points="125.181,51.651 123.552,51.651 123.552,49.057 123.552,49.057 125.181,49.057 "
     id="polygon79"
     style="fill:#00694e;fill-opacity:1" /><polygon
     points="129.437,51.651 127.807,51.651 127.807,49.057 127.807,49.057 129.437,49.057 "
     id="polygon81"
     style="fill:#00694e;fill-opacity:1" /><polygon
     points="133.595,51.651 131.966,51.651 131.966,49.057 131.966,49.057 133.595,49.057 "
     id="polygon83"
     style="fill:#00694e;fill-opacity:1" /><polygon
     points="125.181,61.111 123.552,61.111 123.552,58.518 123.552,58.518 125.181,58.518 "
     id="polygon85"
     style="fill:#00694e;fill-opacity:1" /><polygon
     points="133.595,61.111 131.966,61.111 131.966,58.518 131.966,58.518 133.595,58.518 "
     id="polygon87"
     style="fill:#00694e;fill-opacity:1" /><path
     d="m 127.653,46.298 h -0.008 c 0.001,0 0.008,0.043 0.008,0 l 0,0 z"
     id="path89"
     inkscape:connector-curvature="0"
     style="fill:#00694e;fill-opacity:1" /><path
     d="m 129.493,46.145 c 0,-0.518 -0.393,-0.94 -0.872,-0.94 -0.479,0 -0.871,0.422 -0.871,0.94 0,0.018 0.003,1.069 0.003,1.069 h 1.74 v -1.069 l 0,0 z"
     id="path91"
     inkscape:connector-curvature="0"
     style="fill:#00694e;fill-opacity:1" /><path
     d="m 98.676,78.015 h 1.899 v -1.451 h 1.081 v -1.376 h -1.081 v -4.792 h -2.249 l -3.057,4.552 v 1.616 h 3.406 v 1.451 l 0.001,0 z m -17.05,0.131 c 2.522,0 2.958,-1.965 2.958,-3.94 0,-1.975 -0.437,-3.94 -2.958,-3.94 -2.521,0 -2.958,1.965 -2.958,3.94 0,1.975 0.437,3.94 2.958,3.94 l 0,0 z M 47.549,78.015 h 2.03 v -7.619 h -1.79 l -2.587,1.682 0.906,1.375 1.441,-1.026 v 5.588 l 0,0 z m 14.397,-5.556 c 0,0.753 0.601,1.386 1.31,1.626 -0.819,0.251 -1.506,0.775 -1.506,1.889 0,1.561 1.332,2.172 2.969,2.172 1.593,0 2.991,-0.644 2.991,-2.281 0,-1.146 -0.709,-1.615 -1.539,-1.877 0.666,-0.273 1.255,-0.83 1.255,-1.769 0,-1.343 -1.114,-1.954 -2.62,-1.954 -1.506,0 -2.86,0.567 -2.86,2.194 l 0,0 z m 75.308,-25.76 -2.97,0.003 v -2.515 h -2.815 v -1.79 h -5.667 v 1.787 H 123 l -0.01,2.422 h -2.626 l 0.006,17.883 h 6.975 v -4.656 h 2.483 v 4.656 h 7.067 v 1.515 h -8.843 C 118.512,77.16 96.56,86.559 72.201,86.559 47.848,86.559 27.969,77.173 18.531,66.004 H 7.5 l 0.033,-19.373 2.695,-0.014 0.028,-2.988 h 3.101 l 0.008,-2.518 h 23.391 l 0.012,2.049 2.817,0.016 0.007,2.515 1.026,0 -0.011,1.007 -2.968,0.003 v -2.515 h -2.816 v -1.79 H 29.16 v 1.787 h -2.805 l -0.01,2.422 h -2.627 l 0.007,17.883 h 6.97 v -4.656 h 2.487 v 4.656 h 10.58 V 44.412 l -0.673,-0.653 6.271,-6.26 17.458,0.025 0.615,-0.025 v -5.773 l -0.562,0.007 v -0.594 l 0.804,-0.782 h 0.911 V 23.65 l -0.847,-0.193 -0.185,-0.628 2.89,-0.814 v 8.342 l 1.629,-0.021 V 21.85 h 2.676 v 8.507 h 1.629 v -8.342 l 1.973,0.814 -0.186,0.536 -0.8,0.193 v 6.799 h 0.664 l 0.647,0.736 0.021,0.633 -8.81,-0.011 v 7.671 h 8.206 L 78.087,37.528 79.101,37.526 81.334,37.5 H 94.23 l 6.27,6.26 -0.701,0.653 H 81.334 66.818 56.181 V 64.49 h 19.968 l 0.008,-4.695 c 0,-0.769 0.758,-1.395 1.687,-1.395 0.932,0 1.685,0.626 1.685,1.395 v 4.695 h 24.609 l -0.041,-17.858 2.826,-0.014 -0.025,-2.988 h 3.105 l 0.003,-2.518 h 23.395 l 0.016,2.064 h 2.814 l 0.003,2.5 h 1.011 l 0.009,1.023 0,0 z M 73.435,23.247 c -0.447,0 -0.808,0.361 -0.808,0.806 0,0.447 0.361,0.808 0.808,0.808 0.446,0 0.811,-0.361 0.811,-0.808 0,-0.445 -0.365,-0.806 -0.811,-0.806 l 0,0 z m 25.372,51.941 h -2.096 l 2.074,-3.22 0.022,3.22 0,0 z m -17.181,1.583 c -0.917,0 -0.993,-1.354 -0.993,-2.565 0,-1.211 0.077,-2.565 0.993,-2.565 0.917,0 0.994,1.354 0.994,2.565 0,1.211 -0.076,2.565 -0.994,2.565 l 0,0 z M 65.745,75.788 c 0,0.622 -0.469,0.982 -1.048,0.982 -0.535,0 -0.982,-0.404 -0.982,-0.949 0,-0.59 0.393,-0.906 0.884,-1.136 0.513,0.153 1.146,0.426 1.146,1.103 l 0,0 z M 63.78,72.47 c 0,-0.524 0.404,-0.896 0.895,-0.896 0.448,0 0.917,0.263 0.917,0.809 0,0.513 -0.327,0.785 -0.862,1.091 -0.469,-0.207 -0.95,-0.426 -0.95,-1.004 l 0,0 z"
     id="path93"
     inkscape:connector-curvature="0"
     style="fill:#00694e;fill-opacity:1" /><path
     d="m 258.203,78.14 v 5.444 c 1.771,-0.133 3.541,-0.895 3.541,-2.95 0,-1.961 -1.828,-2.494 -3.541,-2.494 l 0,0 z m 4.17,10.523 c -0.729,-1.01 -1.33,-2.043 -1.6,-2.547 -0.895,-1.714 -0.762,-1.6 -2.57,-1.865 v 1.903 c 0,2.589 -0.113,3.465 2.951,3.692 v 0.533 h -7.977 v -0.533 c 2.266,-0.38 2.514,-0.247 2.514,-3.692 V 81.09 c 0,-2.569 -0.133,-2.931 -2.514,-3.121 v -0.533 h 5.92 c 2.342,0 5.502,0 5.502,3.026 0,1.504 -1.143,2.608 -2.475,3.122 l 2.035,3.732 c 1.506,2.535 4.223,4.275 7.387,4.386 0.299,0.011 0.596,0.006 0.889,-0.013 -1.207,0.421 -2.523,0.588 -3.879,0.445 -2.542,-0.266 -4.738,-1.592 -6.183,-3.471 l 0,0 z"
     id="path95"
     inkscape:connector-curvature="0"
     style="fill:#776f67;fill-opacity:1" /><path
     d="m 172.256,77.904 c 1.789,0.361 2.703,0.248 2.76,2.284 l 0.133,4.607 c 0.076,2.36 -0.398,4.645 -3.539,4.645 -1.333,0 -2.875,-0.457 -3.637,-1.618 -0.609,-0.951 -0.552,-2.455 -0.552,-3.56 v -2.665 c 0,-2.589 -0.114,-3.465 2.513,-3.693 v -0.533 h -7.538 v 0.533 c 2.265,0.381 2.512,0.248 2.512,3.693 v 3.008 c 0,1.599 -0.19,3.445 1.143,4.645 1.123,1.009 2.912,1.39 4.397,1.39 1.58,0 3.312,-0.399 4.435,-1.58 1.104,-1.142 1.143,-2.855 1.199,-4.359 l 0.133,-2.855 c 0.152,-3.179 0.152,-3.464 1.98,-3.94 l 0.795,-0.006 0.068,-0.527 h -6.803 v 0.531 l 0.001,0 z"
     id="path97"
     inkscape:connector-curvature="0"
     style="fill:#776f67;fill-opacity:1" /><path
     d="m 185.027,87.022 c 0,2.57 -0.951,2.494 -2.342,2.761 v 0.533 h 6.244 v -0.533 c -2.246,-0.476 -2.666,-0.628 -2.742,-2.97 -0.076,-2.075 -0.17,-4.073 -0.113,-6.206 3.141,3.389 10.395,11.783 10.395,11.783 V 81.959 c 0,-3.103 0.094,-3.902 1.77,-4.055 v -0.533 h -5.787 v 0.533 c 2.246,0.305 2.818,0.59 2.855,2.855 l 0.115,6.054 -0.039,0.038 c -2.74,-3.198 -6.053,-6.358 -8.451,-9.48 h -4.379 v 0.533 c 2.418,0.419 2.475,1.79 2.475,3.75 v 5.368 l -0.001,0 z"
     id="path99"
     inkscape:connector-curvature="0"
     style="fill:#776f67;fill-opacity:1" /><path
     d="m 209.369,81.598 c 0,-3.445 0.248,-3.313 2.514,-3.693 v -0.533 h -7.539 v 0.533 c 2.266,0.381 2.514,0.248 2.514,3.693 v 4.492 c 0,3.446 -0.248,3.313 -2.514,3.693 v 0.533 h 7.539 v -0.533 c -2.266,-0.381 -2.514,-0.247 -2.514,-3.693 v -4.492 l 0,0 z"
     id="path101"
     inkscape:connector-curvature="0"
     style="fill:#776f67;fill-opacity:1" /><path
     d="m 223.85,92.406 4.068,-9.99 c 1.313,-3.064 1.77,-4.283 3.539,-4.512 V 77.371 H 225.5 v 0.533 c 2.436,0.381 3.025,0.305 0.971,5.464 l -1.656,4.149 -2.646,-6.281 c -1.199,-2.818 -1.086,-2.818 1.104,-3.332 v -0.533 h -6.758 v 0.533 c 1.484,0.495 1.543,0.381 2.475,2.494 l 4.86,12.008 0,0 z"
     id="path103"
     inkscape:connector-curvature="0"
     style="fill:#776f67;fill-opacity:1" /><path
     d="m 242.059,84.167 c 1.656,0 2.551,-0.037 2.932,1.828 h 0.533 c -0.096,-1.618 -0.02,-3.218 0.076,-4.835 h -0.496 c -0.477,1.731 -1.332,1.865 -2.969,1.865 h -1.619 v -4.854 h 1.391 c 2.074,0 3.768,0.038 3.902,2.532 h 0.59 l 0.361,-3.332 h -11.27 v 0.533 c 2.266,0.381 2.514,0.248 2.514,3.693 v 4.492 c 0,3.446 -0.248,3.313 -2.514,3.693 v 0.533 h 11.535 c 0.457,-1.428 0.725,-2.894 0.686,-4.379 h -0.57 c -0.533,2.189 -1.6,3.579 -4.074,3.579 -2.531,0 -2.551,-0.895 -2.551,-2.836 v -2.514 h 1.543 l 0,0.002 z"
     id="path105"
     inkscape:connector-curvature="0"
     style="fill:#776f67;fill-opacity:1" /><path
     d="m 291.514,81.598 c 0,-3.445 0.246,-3.313 2.512,-3.693 v -0.533 h -7.539 v 0.533 c 2.266,0.381 2.514,0.248 2.514,3.693 v 4.492 c 0,3.446 -0.248,3.313 -2.514,3.693 v 0.533 h 7.539 v -0.533 c -2.266,-0.381 -2.512,-0.247 -2.512,-3.693 v -4.492 l 0,0 z"
     id="path107"
     inkscape:connector-curvature="0"
     style="fill:#776f67;fill-opacity:1" /><path
     d="m 299.594,81.141 c 0.781,-2.703 2.152,-2.97 4.779,-2.97 v 7.919 c 0,3.446 -0.248,3.313 -2.855,3.693 v 0.533 h 8.223 v -0.533 c -2.607,-0.381 -2.855,-0.247 -2.855,-3.693 v -7.919 c 2.627,0 4.035,0.267 4.797,2.97 l 0.533,-0.095 -0.438,-3.69 h -12.279 l -0.438,3.69 0.533,0.095 0,0 z"
     id="path109"
     inkscape:connector-curvature="0"
     style="fill:#776f67;fill-opacity:1" /><path
     d="m 323.307,84.814 0.342,-0.724 2.172,-4.017 c 0.779,-1.428 1.561,-1.827 3.178,-2.17 V 77.37 h -5.539 v 0.533 c 1.695,0.438 2.037,0.609 0.418,3.902 l -1.027,2.095 -1.656,-3.484 c -1.104,-2.322 -0.475,-2.17 0.857,-2.513 V 77.37 h -6.605 v 0.533 c 2.113,0.438 2.359,1.257 3.217,2.989 l 2.133,4.321 v 0.875 c 0,3.446 -0.248,3.313 -2.762,3.693 v 0.533 h 8.033 v -0.533 c -2.873,-0.229 -2.76,-1.104 -2.76,-3.693 v -1.274 l -10e-4,0 z"
     id="path111"
     inkscape:connector-curvature="0"
     style="fill:#776f67;fill-opacity:1" /><path
     d="m 276.109,90.64 c 2.436,0 5.029,-1.142 5.029,-3.884 0,-3.979 -6.262,-3.769 -6.262,-6.853 0,-1.123 0.779,-1.979 1.941,-1.979 1.961,0 2.418,1.732 2.779,3.293 h 0.57 l 0.172,-3.313 c -0.971,-0.571 -2.094,-0.856 -3.236,-0.856 -2.322,0 -4.74,1.408 -4.74,3.94 0,3.77 6.264,3.503 6.264,6.72 0,1.237 -0.934,2.056 -2.189,2.056 -2.246,0 -3.637,-2.112 -4.264,-3.979 l -0.59,0.114 0.654,3.589 c 1.089,0.737 2.468,1.122 3.872,1.152 l 0,0 z"
     id="path113"
     inkscape:connector-curvature="0"
     style="fill:#776f67;fill-opacity:1" /><path
     clip-rule="evenodd"
     d="m 310.277,28.872 c -9.23,0 -12.934,9.017 -12.934,16.263 0,8.32 4.4,18.947 14.063,18.947 8.855,0 12.773,-9.018 12.773,-16.692 -0.159,-9.501 -5.689,-18.518 -13.902,-18.518 l 0,0 z m 0.43,-2.337 c 14.504,0 20.791,9.857 20.791,19.942 0.002,12.181 -8.838,19.943 -20.734,19.943 -11.955,0 -20.736,-7.762 -20.736,-19.999 -0.001,-12.067 8.837,-19.886 20.679,-19.886 l 0,0 z"
     id="path115"
     inkscape:connector-curvature="0"
     style="fill:#776f67;fill-opacity:1;fill-rule:evenodd" /><path
     clip-rule="evenodd"
     d="m 180.133,28.872 c -9.233,0 -12.936,9.017 -12.936,16.263 0,8.32 4.401,18.947 14.063,18.947 8.855,0 12.773,-9.018 12.773,-16.692 -0.16,-9.501 -5.689,-18.518 -13.9,-18.518 l 0,0 z m 0.428,-2.337 c 14.504,0 20.791,9.858 20.791,19.942 0,12.181 -8.838,19.942 -20.734,19.942 -11.954,0 -20.735,-7.762 -20.735,-19.999 -0.002,-12.066 8.837,-19.885 20.678,-19.885 l 0,0 z"
     id="path117"
     inkscape:connector-curvature="0"
     style="fill:#776f67;fill-opacity:1;fill-rule:evenodd" /><path
     d="m 275.861,36.482 c 0.17,-5.85 0.227,-7.554 7.041,-8.462 V 27.168 H 263.82 v 0.852 c 6.814,0.909 6.871,2.612 7.043,8.462 v 19.993 c -0.172,5.85 -0.229,7.554 -7.043,8.462 v 0.853 h 19.082 v -0.853 c -6.814,-0.908 -6.871,-2.612 -7.041,-8.462 V 36.482 l 0,0 z"
     id="path119"
     inkscape:connector-curvature="0"
     style="fill:#776f67;fill-opacity:1" /><path
     d="m 220.617,36.482 v 6.282 h 22.586 l 0.002,-6.282 c -0.172,-5.85 -0.229,-7.554 -7.043,-8.462 v -0.852 h 19.082 v 0.852 c -6.814,0.909 -6.871,2.612 -7.041,8.462 v 19.993 c 0.17,5.85 0.227,7.554 7.041,8.462 v 0.853 h -19.082 v -0.853 c 6.814,-0.908 6.871,-2.612 7.043,-8.462 L 243.203,46.32 h -22.586 v 10.155 c 0.17,5.85 0.227,7.554 7.043,8.462 v 0.853 h -19.084 v -0.853 c 6.816,-0.908 6.873,-2.612 7.043,-8.462 V 36.482 c -0.17,-5.85 -0.227,-7.554 -7.043,-8.462 v -0.852 h 19.084 v 0.852 c -6.816,0.908 -6.873,2.612 -7.043,8.462 l 0,0 z"
     id="path121"
     inkscape:connector-curvature="0"
     style="fill:#776f67;fill-opacity:1" /></g>
</svg>