<?xml version="1.0" encoding="utf-8"?>
<!-- Generator: Adobe Illustrator 16.0.0, SVG Export Plug-In . SVG Version: 6.00 Build 0)  -->
<!DOCTYPE svg PUBLIC "-//W3C//DTD SVG 1.1//EN" "http://www.w3.org/Graphics/SVG/1.1/DTD/svg11.dtd">
<svg version="1.1" id="Layer_1" xmlns="http://www.w3.org/2000/svg" xmlns:xlink="http://www.w3.org/1999/xlink" x="0px" y="0px"
	 width="612px" height="792px" viewBox="0 0 612 792" enable-background="new 0 0 612 792" xml:space="preserve">

<g>
	<g>
		<path fill="rgba(0, 0, 0, 0)" d="M609.199,572.2c-201.131,0-402.266,0-603.399,0c0-117.134,0-234.266,0-351.4
			c201.134,0,402.269,0,603.399,0C609.199,337.935,609.199,455.066,609.199,572.2z M242.302,501.787
			c-12.512-3.098-12.537-2.947-24.953,4.699c-1.676,1.032-5.489,0.975-6.834-0.23c-7.331-6.566-13.385-7.99-21.792-2.097
			c-6.672,4.679-13.096,5.554-20.874,4.471c-11.408-1.586-23.173-1.425-32.554,6.313c-4.08,3.363-7.995,9.049-8.536,14.051
			c-0.703,6.482,5.299,10.41,11.301,12.576c3.257,1.176,6.695,1.894,10.093,2.63c5.219,1.128,10.728,1.421,15.659,3.272
			c9.636,3.625,18.872,3.963,28.563,0.236c2.389-0.917,6.241-0.127,8.573,1.282c8.551,5.165,16.947,7.235,26.338,2.148
			c1.81-0.981,4.848-0.804,6.901-0.04c8.809,3.279,17.468,4.607,26.531,0.83c1.789-0.746,4.755-0.561,6.369,0.464
			c8.579,5.466,17.438,5.28,26.792,2.647c2.571-0.725,5.744-0.723,8.282,0.082c9.125,2.892,17.638,3.646,25.616-3.217
			c1.411-1.213,4.846-1.092,6.904-0.355c9.815,3.509,19.352,6.527,29.422,0.371c2.029-1.241,5.493-0.006,8.285-0.143
			c5.835-0.285,12.056,0.396,17.364-1.466c3.924-1.378,6.65-1.924,10.273-0.036c7.226,3.768,14.496,4.031,22.131,0.441
			c2.384-1.124,6.244-0.836,8.729,0.316c7.308,3.379,14.342,2.942,21.585,0.273c1.922-0.709,3.996-1.777,5.914-1.623
			c18.832,1.503,32.904-5.57,42.47-22.109c4.884-8.445,2.042-17.959-7.669-19.908c-5.875-1.181-12.221,0.105-18.357,0.077
			c-2.161-0.009-5.469,0.126-6.283-1.108c-3.65-5.531-9.066-7.242-14.615-5.959c-7.555,1.742-14.349,3.881-21.91-0.852
			c-2.611-1.635-7.744,0.058-11.474,1.116c-3.243,0.919-6.134,3.085-9.423,4.83c-4.104-7.86-10.825-8.604-18.471-6.985
			c-1.808,0.383-3.805,0.754-5.531,0.355c-1.203-0.279-2.877-1.811-2.989-2.918c-0.386-3.824-0.517-7.742-0.141-11.566
			c1.925-19.446,6.503-38.197,13.649-56.467c1.652-4.223,0.441-10.527-1.494-14.988c-3.951-9.105-12.258-12.597-20.887-12.308
			c3.051-10.704,5.764-20.87,8.867-30.917c2.928-9.493,4.229-10.173,14.021-8.513c32.977,5.592,65.944,11.23,98.854,16.841
			c3.145-6.954,2.087-9.286-4.567-10.33c-2.299-0.361-4.648-0.419-6.938-0.827c-28.641-5.1-57.275-10.231-85.906-15.374
			c-2.69-0.485-5.358-1.099-8.037-1.655c0.896-1.36,1.568-1.647,2.172-1.541c32.542,5.691,65.084,11.39,97.613,17.167
			c7.377,1.311,9.256-0.219,9.478-8.371c-0.565-0.31-1.135-0.835-1.774-0.942c-33.049-5.613-66.125-11.064-99.128-16.941
			c-3.645-0.649-10.03,1.583-10.287-5.441c-0.265-7.265,5.942-5.127,9.771-5.742c36.092-5.789,72.205-11.46,108.354-16.894
			c1.747-0.263,4.391,1.588,5.691,3.201c1.545,1.912,2.328,4.564,3.018,7.017c3.88,13.795,12.397,24.876,21.011,35.851
			c3.708,4.726,24.849,3.781,28.231-1.058c0.885-1.263,1.256-3.02,1.461-4.604c1.944-14.996,3.984-29.982,5.561-45.017
			c0.436-4.147,1.508-6.608,5.937-6.864c4.616-0.27,7.663-1.896,6.372-7.431c-1.047-4.482-1.695-9.154-8.258-7.033
			c-3.963,1.281-5.338-0.719-6.15-4.298c-1.127-4.965-2.289-10.014-4.279-14.669c-2.303-5.386-6.564-9.739-12.791-9.16
			c-11.803,1.096-23.531,3.035-35.269,4.775c-5.646,0.839-8.612,4.644-9.017,10.057c-0.447,6.022-0.639,12.114-0.247,18.135
			c0.327,5.028-1.339,6.964-6.375,7.701c-23.268,3.411-46.47,7.253-69.718,10.826c-14.673,2.255-29.377,4.311-44.922,6.579
			c0-3.369-0.123-6.107,0.023-8.831c0.465-8.783-1.948-16.537-7.754-23.241c-1.82-2.101-3.399-4.444-4.861-6.814
			c-5.242-8.492-10.87-10.684-20.316-9.414c-6.685,0.901-13.693,1.252-20.32,0.258c-7.933-1.191-13.857,0.904-17.879,7.438
			c-2.217,3.604-4.256,3.797-7.979,2.654c-9.985-3.063-17.941,2.071-20.068,12.29c-0.634,3.046-1.618,6.02-2.477,9.16
			c-15.625-6.634-23.323-0.585-28.126,15.407c-1.488,0-3.123,0.233-4.671-0.035c-19.739-3.416-39.445-7.006-59.197-10.335
			c-12.599-2.125-25.211-4.621-37.914-5.46c-5.179-0.341-8.054-0.455-9.542-5.916c-8.376-30.758-47.394-37.803-69.137-18.353
			c-2.392,2.141-7.025,2.685-10.525,2.469c-5.521-0.345-10.945-2.075-16.446-3.01c-5.238-0.891-5.768,3.203-5.863,6.613
			c-0.058,2.116,1.106,5.838,2.406,6.172c12.301,3.15,24.748,5.726,36.415,8.306c2.565-3.553,3.832-6.672,6.147-8.293
			c13.332-9.332,31.489-2.934,36.552,8.625c7.484,17.081,8.486,13.358-7.752,22.367c-15.595,8.649-27.366,3.121-33.365-13.658
			c-0.788-2.202-3.358-4.765-5.555-5.296c-10.601-2.568-21.324-4.708-32.092-6.443c-1.742-0.278-5.128,1.844-5.72,3.56
			c-3.209,9.293-2.228,10.629,7.537,11.869c11.129,1.415,20.047,4.443,26.663,15.635c10.782,18.236,29.613,24.711,47.752,13.9
			c7.056-4.206,13.062-10.142,19.772-14.979c2.227-1.604,5.36-3.494,7.731-3.112c21.362,3.459,42.658,7.324,63.945,11.223
			c9.17,1.68,18.278,3.717,29.204,5.962c-2.637,1.315-3.383,1.931-4.208,2.065c-34.934,5.649-69.878,11.233-104.81,16.887
			c-7.118,1.15-14.154,3.119-21.306,3.64c-5.44,0.399-8.635,2.304-8.634,7.664c0.002,6.039,4.001,9.093,10.141,8.114
			c44.582-7.096,89.151-14.273,133.733-21.374c2.626-0.419,5.325-0.381,8.244-0.572c0.838,16.192,7.508,28.959,17.324,40.375
			c2.422,2.82,4.633,5.864,6.609,9.013c5.727,9.119,0.946,20.505-8.762,24.72c-13.235,5.747-27.114,10.682-35.769,23.902
			c-5.544,8.468-6.167,13.608,0.799,21.059c2.171,2.322,5.614,3.529,7.548,5.979c1.746,2.211,3.561,5.742,2.993,8.13
			C247.175,491.295,244.436,496.513,242.302,501.787z"/>
		<path fill= "#7c8081" d="M242.302,501.787c2.133-5.277,4.873-10.493,6.193-16.048c0.568-2.389-1.246-5.919-2.992-8.132
			c-1.933-2.449-5.378-3.653-7.549-5.978c-6.965-7.45-6.341-12.591-0.799-21.06c8.657-13.221,22.534-18.154,35.771-23.9
			c9.709-4.215,14.488-15.603,8.761-24.722c-1.979-3.149-4.188-6.193-6.61-9.013c-9.814-11.417-16.485-24.182-17.323-40.376
			c-2.919,0.192-5.619,0.155-8.245,0.572c-44.581,7.101-89.15,14.278-133.731,21.375c-6.139,0.977-10.139-2.076-10.143-8.114
			c-0.001-5.357,3.195-7.263,8.634-7.663c7.152-0.523,14.189-2.488,21.306-3.64c34.934-5.653,69.878-11.237,104.81-16.887
			c0.825-0.133,1.573-0.748,4.209-2.065c-10.929-2.244-20.034-4.282-29.206-5.961c-21.287-3.899-42.584-7.764-63.943-11.224
			c-2.372-0.381-5.506,1.507-7.733,3.113c-6.708,4.835-12.716,10.771-19.771,14.978c-18.139,10.813-36.971,4.338-47.752-13.901
			c-6.615-11.191-15.535-14.219-26.664-15.632c-9.765-1.242-10.747-2.579-7.537-11.87c0.592-1.717,3.979-3.839,5.721-3.561
			c10.769,1.733,21.492,3.875,32.092,6.442c2.197,0.533,4.769,3.095,5.556,5.296c5.998,16.778,17.768,22.308,33.365,13.658
			c16.238-9.008,15.236-5.285,7.751-22.365c-5.065-11.56-23.221-17.958-36.553-8.625c-2.315,1.621-3.582,4.74-6.146,8.292
			c-11.667-2.579-24.115-5.156-36.416-8.306c-1.299-0.333-2.464-4.056-2.405-6.171c0.094-3.411,0.624-7.502,5.862-6.614
			c5.501,0.935,10.924,2.667,16.447,3.01c3.5,0.218,8.132-0.327,10.525-2.467c21.742-19.451,60.76-12.405,69.136,18.352
			c1.488,5.46,4.363,5.574,9.541,5.917c12.704,0.84,25.315,3.336,37.914,5.459c19.753,3.329,39.46,6.919,59.197,10.336
			c1.549,0.268,3.184,0.035,4.672,0.035c4.802-15.993,12.501-22.042,28.125-15.408c0.86-3.141,1.844-6.114,2.479-9.16
			c2.126-10.22,10.083-15.351,20.067-12.29c3.722,1.141,5.76,0.949,7.977-2.654c4.023-6.537,9.947-8.63,17.881-7.438
			c6.625,0.993,13.633,0.642,20.32-0.259c9.445-1.271,15.074,0.92,20.314,9.414c1.465,2.37,3.043,4.712,4.864,6.814
			c5.804,6.704,8.218,14.457,7.752,23.239c-0.145,2.724-0.022,5.462-0.022,8.833c15.545-2.27,30.247-4.325,44.924-6.58
			c23.245-3.574,46.447-7.418,69.716-10.826c5.036-0.738,6.702-2.673,6.376-7.703c-0.393-6.018-0.204-12.111,0.246-18.133
			c0.404-5.411,3.371-9.217,9.016-10.056c11.738-1.742,23.468-3.68,35.269-4.777c6.226-0.578,10.488,3.774,12.791,9.16
			c1.99,4.654,3.153,9.704,4.28,14.67c0.812,3.58,2.188,5.579,6.15,4.298c6.563-2.121,7.21,2.551,8.256,7.033
			c1.293,5.534-1.754,7.161-6.371,7.429c-4.427,0.26-5.502,2.718-5.936,6.867c-1.576,15.035-3.617,30.021-5.561,45.016
			c-0.204,1.583-0.576,3.34-1.461,4.605c-3.384,4.839-24.522,5.783-28.231,1.056c-8.612-10.976-17.13-22.056-21.011-35.851
			c-0.689-2.451-1.475-5.104-3.018-7.018c-1.302-1.612-3.945-3.462-5.692-3.199c-36.147,5.435-72.259,11.106-108.353,16.893
			c-3.828,0.614-10.039-1.523-9.771,5.742c0.258,7.024,6.644,4.792,10.287,5.44c33.001,5.875,66.078,11.33,99.127,16.941
			c0.642,0.109,1.209,0.634,1.775,0.942c-0.22,8.152-2.1,9.68-9.477,8.371c-32.529-5.776-65.072-11.473-97.613-17.167
			c-0.604-0.106-1.277,0.181-2.172,1.542c2.679,0.554,5.346,1.17,8.036,1.654c28.632,5.144,57.267,10.275,85.906,15.373
			c2.29,0.408,4.64,0.467,6.937,0.828c6.654,1.044,7.715,3.375,4.568,10.331c-32.91-5.611-65.879-11.25-98.855-16.842
			c-9.791-1.661-11.092-0.981-14.021,8.511c-3.102,10.048-5.815,20.215-8.865,30.917c8.631-0.289,16.936,3.204,20.886,12.31
			c1.937,4.461,3.147,10.765,1.494,14.986c-7.147,18.271-11.726,37.022-13.649,56.468c-0.377,3.823-0.246,7.74,0.141,11.564
			c0.112,1.107,1.783,2.641,2.989,2.918c1.728,0.4,3.724,0.031,5.53-0.354c7.646-1.619,14.37-0.875,18.473,6.986
			c3.289-1.744,6.178-3.911,9.422-4.83c3.729-1.059,8.861-2.753,11.474-1.117c7.563,4.734,14.357,2.596,21.909,0.852
			c5.552-1.283,10.966,0.428,14.617,5.96c0.814,1.232,4.122,1.099,6.284,1.108c6.135,0.029,12.482-1.256,18.354-0.078
			c9.711,1.95,12.554,11.463,7.67,19.91c-9.564,16.537-23.639,23.609-42.469,22.107c-1.92-0.154-3.992,0.914-5.916,1.621
			c-7.242,2.668-14.276,3.107-21.583-0.273c-2.486-1.148-6.347-1.438-8.731-0.316c-7.635,3.592-14.904,3.328-22.131-0.438
			c-3.621-1.888-6.348-1.344-10.271,0.034c-5.31,1.864-11.529,1.182-17.365,1.466c-2.791,0.137-6.256-1.099-8.285,0.142
			c-10.07,6.158-19.607,3.139-29.422-0.369c-2.059-0.737-5.494-0.857-6.904,0.354c-7.979,6.864-16.49,6.11-25.616,3.218
			c-2.539-0.803-5.709-0.807-8.283-0.082c-9.354,2.635-18.211,2.818-26.79-2.646c-1.613-1.025-4.58-1.211-6.37-0.465
			c-9.063,3.779-17.72,2.45-26.53-0.83c-2.054-0.765-5.092-0.941-6.902,0.039c-9.392,5.087-17.789,3.018-26.338-2.146
			c-2.331-1.41-6.184-2.201-8.572-1.283c-9.69,3.727-18.928,3.39-28.563-0.235c-4.93-1.854-10.439-2.145-15.659-3.274
			c-3.398-0.734-6.834-1.453-10.092-2.63c-6.005-2.167-12.005-6.095-11.303-12.575c0.542-5.004,4.456-10.689,8.536-14.051
			c9.382-7.736,21.147-7.9,32.554-6.314c7.779,1.082,14.204,0.207,20.875-4.47c8.408-5.896,14.462-4.471,21.793,2.097
			c1.343,1.203,5.158,1.264,6.833,0.23C229.765,498.84,229.79,498.689,242.302,501.787z M336.465,400.83
			c4.094-4.352,7.627-9.491,12.404-12.88c7.811-5.536,11.109-12.123,8.573-19.863c4.579-4.302,9.914-7.19,11.596-11.504
			c1.642-4.211,2.853-6.433,7.296-7.652c3.642-1,5.774-3.735,0.486-6.311c-0.67-0.327-1.323-1.098-1.579-1.809
			c-1.746-4.887-3.587-9.76-4.958-14.755c-0.578-2.109-0.096-4.512-0.096-7.636c2.475,1.521,3.799,2.336,5.12,3.15
			c0.64-0.244,1.278-0.485,1.917-0.729c-1.044-6.198-1.426-12.615-3.369-18.516c-1.269-3.86-4.68-7.089-7.514-10.254
			c-0.312-0.346-3.339,1.373-4.779,2.535c-1.01,0.81-1.459,2.304-2.158,3.493c-0.543-0.395-1.087-0.792-1.629-1.19
			c0.846-1.788,1.69-3.577,2.463-5.202c-4.443-3.622-10.08,6.173-13.897-1.865c7.78-1.991,7.884-2.11,7.36-8.611
			c-1.673,0.352-3.288,0.694-3.504,0.74c-1.021-3.652-2.141-6.661-2.664-9.771c-0.734-4.385-3.341-4.609-5.709-2.129
			c-2.441,2.556-5.004,5.94-5.488,9.257c-1.711,11.759,1.717,26.803,15.166,32.458c1.521,10.843,2.957,21.071,4.192,29.878
			c-6.182,2.532-12.317,5.828-18.867,7.546c-10.01,2.623-5.612,12.677-10.386,17.799c-4.135,0.671-8.361,1.355-12.582,2.039
			c1.795-1.486,4.369-1.829,5.397-3.272c0.897-1.255,0.552-5.237-0.109-5.463c-3.786-1.283-7.833-1.804-11.788-2.584
			c-0.074,0.379-0.146,0.756-0.219,1.136c1.574,0.312,3.152,0.622,4.731,0.935c-0.095,0.729-0.187,1.46-0.28,2.191
			c-6.606-0.572-13.212-1.143-19.853-1.719c-4.161-4.841-12.326-6.865-16.679-4.116c-4.507,2.846-7.929,13.685-6.301,18.695
			c2.864,8.816,9.293,14.856,15.672,20.971c7.304,7,11.743,14.334,6.885,25.103c-2.502,5.548-3.422,12.101-3.736,18.267
			c-0.353,6.959,3.215,9.066,9.686,6.541c10.388-4.059,20.749-8.205,30.964-12.672c3.387-1.484,6.289-4.072,10.462-6.854
			c-2.877-0.905-4.072-1.284-5.048-1.591c4.788-3.266,9.576-6.533,14.366-9.8c-0.526-0.902-1.052-1.802-1.576-2.702
			c-6.979,2.478-13.96,4.955-21.382,7.588c0.963-3.242,1.477-5.941,2.57-8.381c1.18-2.635,2.902-5.025,4.389-7.524
			c6.502,2.199,11.299,0.36,14.223-7.243C342.979,397.979,339.722,399.404,336.465,400.83z M289.851,303.446
			c-4.022-1.196-7.855-2.401-11.726-3.466c-5.433-1.493-9.951,0.003-11.875,5.412c-1.813,5.104-4.113,10.936,3.948,13.577
			c1.371,0.449,2.609,1.864,3.502,3.121c4.345,6.108,10.855,11.05,10.679,19.673c-0.021,1.008,0.853,2.722,1.633,2.938
			c3.172,0.874,6.466,1.64,9.72,1.659c0.931,0.006,1.879-2.631,2.82-4.056c-4.238-2.034,2.69-7.811-3.123-9.317
			c0.582-0.916,1.166-1.835,2.045-3.221c-2.14,0-3.897,0-6.579,0c2.636-1.132,4.375-1.878,4.976-2.135
			c-0.296-4.015-0.202-7.087-0.82-10.01c-0.782-3.704-2.144-7.288-3.257-10.93c8.178-0.172,11.75,3.861,11.194,11.998
			c-0.379,5.555-0.448,11.162-0.14,16.718c0.177,3.179,1.185,6.368,2.171,9.438c1.81,5.629,6.467,5.731,10.857,4.417
			c4.024-1.205,4.691-3.92,1.071-6.94c-0.278-0.233,0.515-1.751,1.051-3.428c-8.789,3.238-9.177-1.554-8.553-7.338
			c12.884-4.694,12.884-4.694,13.451-9.824c-3.02,0.9-5.983,1.783-10.297,3.068c5.166-4.989,10.09-8.396,12.901-13.074
			c1.253-2.082-1.435-6.858-2.897-10.164c-1.862-4.215-3.786-8.583-6.627-12.133c-2.68-3.353-6.253-7.414-10.014-8.136
			c-5.725-1.102-9.815,3.322-11.821,8.781C292.462,294.644,291.152,299.346,289.851,303.446z M346.603,505.417
			c-13.958-6.235-24.894-3.455-31.718,8.114c-4.086,6.928-7.269,14.457-10.242,21.963c-3.914,9.876,0.082,14.541,10.719,12.521
			c3.232-0.613,6.445-2.494,9.157-4.488C337.328,534.123,339.383,518.633,346.603,505.417z M268.641,503.447
			c-0.196-0.473-0.394-0.946-0.589-1.418c-5.004,2.033-10.404,3.426-14.937,6.227c-11.363,7.02-13.679,19.832-18.476,30.979
			c-0.361,0.84,0.055,2.362,0.639,3.201c4.287,6.16,18.46,5.85,22.73-0.393c5.739-8.385,11.468-16.776,17.297-25.1
			c2.429-3.469,5.104-6.762,7.665-10.136c-4.544-1.119-9.087-2.242-13.633-3.355C269.118,503.4,268.874,503.447,268.641,503.447z
			 M177.484,544.234c9.545,0.088,17.116-3.533,22.103-11.859c2.498-4.17,5.709-8.218,6.915-12.768
			c1.129-4.27,1.798-10.868-0.557-13.242c-2.431-2.449-9.153-2.35-13.297-1.08c-12.507,3.836-17.869,15.494-24.96,25.102
			c-6.475,8.773-5.247,11.596,5.623,13.604C174.67,544.242,176.09,544.161,177.484,544.234z M444.865,545.289
			c2.532-1.822,7.58-3.965,10.328-7.77c4.525-6.273,7.653-13.577,11.211-20.529c3.295-6.438-1.502-14.381-8.582-12.932
			c-5.738,1.176-12.33,3.987-15.944,8.27c-4.591,5.438-7.028,12.92-9.53,19.834C429.422,540.243,433.916,545.566,444.865,545.289z
			 M396.674,501.547c-0.469-0.379-0.936-0.755-1.402-1.134c-4.408,3.339-10.115,5.839-12.925,10.204
			c-4.458,6.926-7.284,14.98-10.226,22.777c-2.141,5.679,1.124,9.986,7.112,10.909c7.509,1.159,11.678-3.001,14.984-8.856
			c4.339-7.688,9.099-15.172,12.883-23.119c0.938-1.969-0.378-6.213-2.122-7.93C403.104,502.544,399.516,502.424,396.674,501.547z
			 M336.935,317.188c2.572-1.684,5.042-2.439,5.63-3.936c0.561-1.423-0.438-3.887-1.455-5.431
			c-6.081-9.23-12.189-18.276-7.883-30.321c0.732-2.049-0.512-4.806-0.843-7.235c-3.044,0.53-6.813,0.109-8.989,1.774
			c-5.51,4.221-6.729,12.701-3.553,19.083c3.419,6.879,6.762,13.814,10.623,20.447C331.765,313.799,334.539,315.173,336.935,317.188
			z M167.556,308.573c-0.088,0.906-0.176,1.815-0.263,2.722c29.407,4.952,58.814,9.902,88.224,14.854
			c0.088-0.518,0.175-1.036,0.263-1.554C226.37,319.255,196.963,313.914,167.556,308.573z M365.576,287.418
			c0-3.339,0.107-5.325-0.029-7.292c-0.197-2.867,0.459-7.008-1.119-8.271c-2.201-1.764-6.128-1.374-9.315-1.904
			c-0.351,0.84-0.7,1.68-1.05,2.52C358.201,276.73,357.231,284.524,365.576,287.418z M344.627,409.709
			c-0.354-0.912-0.705-1.828-1.057-2.742c-4.521,1.808-9.049,3.615-13.572,5.424c0.311,0.807,0.619,1.614,0.932,2.42
			C335.494,413.109,340.061,411.409,344.627,409.709z"/>
		<path fill="rgba(0, 0, 0, 0)" d="M332.011,403.795c-1.486,2.499-3.209,4.89-4.388,7.525c-1.094,2.438-1.607,5.139-2.57,8.381
			c7.422-2.634,14.4-5.111,21.38-7.588c0.524,0.9,1.05,1.799,1.577,2.701c-4.789,3.267-9.578,6.535-14.365,9.8
			c0.975,0.307,2.171,0.685,5.047,1.591c-4.172,2.781-7.075,5.371-10.463,6.854c-10.216,4.467-20.574,8.613-30.963,12.672
			c-6.47,2.527-10.041,0.42-9.686-6.54c0.314-6.165,1.232-12.719,3.736-18.267c4.858-10.766,0.419-18.104-6.885-25.102
			c-6.38-6.114-12.81-12.155-15.672-20.971c-1.629-5.01,1.793-15.849,6.301-18.696c4.353-2.749,12.517-0.725,16.68,4.116
			c6.642,0.574,13.247,1.146,19.854,1.718c0.092-0.73,0.186-1.461,0.278-2.191c-1.577-0.312-3.156-0.623-4.731-0.935
			c0.074-0.378,0.146-0.755,0.219-1.135c3.957,0.78,8.004,1.301,11.789,2.584c0.662,0.227,1.007,4.208,0.109,5.463
			c-1.027,1.444-3.604,1.786-5.397,3.272c4.222-0.683,8.446-1.369,12.581-2.039c4.773-5.122,0.377-15.177,10.386-17.799
			c6.55-1.719,12.687-5.014,18.867-7.546c-1.235-8.807-2.671-19.034-4.192-29.878c-13.449-5.655-16.877-20.697-15.165-32.458
			c0.483-3.317,3.046-6.702,5.487-9.257c2.368-2.479,4.975-2.254,5.709,2.129c0.525,3.109,1.643,6.116,2.664,9.771
			c0.217-0.046,1.832-0.388,3.506-0.741c0.522,6.503,0.418,6.62-7.361,8.611c3.817,8.038,9.453-1.756,13.896,1.865
			c-0.771,1.626-1.616,3.414-2.463,5.202c0.543,0.396,1.087,0.793,1.629,1.189c0.7-1.187,1.15-2.683,2.157-3.492
			c1.442-1.162,4.469-2.881,4.782-2.535c2.833,3.167,6.243,6.394,7.514,10.254c1.943,5.9,2.322,12.318,3.368,18.516
			c-0.639,0.244-1.276,0.485-1.917,0.729c-1.322-0.814-2.646-1.628-5.12-3.15c0,3.125-0.483,5.526,0.095,7.636
			c1.373,4.995,3.213,9.868,4.959,14.755c0.256,0.711,0.907,1.482,1.58,1.809c5.286,2.576,3.153,5.312-0.488,6.311
			c-4.441,1.219-5.653,3.441-7.296,7.652c-1.681,4.313-7.018,7.203-11.595,11.504c2.535,7.739-0.763,14.325-8.574,19.864
			c-4.777,3.389-8.313,8.528-12.385,12.878C335.006,401.816,333.51,402.806,332.011,403.795z"/>
		<path fill="rgba(0, 0, 0, 0)" d="M289.851,303.446c1.303-4.102,2.612-8.803,4.29-13.371c2.005-5.459,6.096-9.883,11.821-8.781
			c3.763,0.722,7.335,4.783,10.015,8.136c2.84,3.549,4.764,7.917,6.627,12.134c1.461,3.304,4.148,8.081,2.897,10.164
			c-2.813,4.677-7.735,8.082-12.903,13.073c4.313-1.285,7.277-2.168,10.297-3.067c-0.565,5.128-0.565,5.128-13.449,9.822
			c-0.623,5.785-0.237,10.579,8.553,7.339c-0.536,1.677-1.33,3.196-1.051,3.427c3.619,3.021,2.953,5.737-1.071,6.94
			c-4.394,1.314-9.05,1.211-10.857-4.416c-0.988-3.07-1.995-6.259-2.173-9.438c-0.307-5.556-0.239-11.164,0.14-16.718
			c0.556-8.138-3.016-12.17-11.193-11.996c1.113,3.641,2.474,7.224,3.257,10.93c0.617,2.923,0.524,5.994,0.819,10.01
			c-0.6,0.257-2.339,1.003-4.976,2.135c2.681,0,4.44,0,6.579,0c-0.881,1.386-1.463,2.303-2.046,3.22
			c5.813,1.506-1.115,7.283,3.124,9.316c-0.94,1.426-1.889,4.062-2.82,4.057c-3.254-0.02-6.548-0.786-9.719-1.659
			c-0.783-0.214-1.655-1.93-1.634-2.938c0.176-8.624-6.333-13.563-10.678-19.674c-0.894-1.255-2.13-2.67-3.503-3.121
			c-8.06-2.643-5.763-8.475-3.948-13.577c1.925-5.409,6.442-6.906,11.875-5.412C281.996,301.045,285.829,302.253,289.851,303.446z"
			/>
		<path fill="rgba(0, 0, 0, 0)" d="M346.603,505.417c-7.219,13.216-9.274,28.706-22.083,38.11c-2.713,1.994-5.925,3.877-9.157,4.488
			c-10.637,2.016-14.633-2.646-10.719-12.521c2.973-7.505,6.156-15.034,10.242-21.965
			C321.707,501.962,332.645,499.182,346.603,505.417z"/>
		<path fill="rgba(0, 0, 0, 0)" d="M268.641,503.447c0.234,0,0.478-0.045,0.698,0.008c4.545,1.112,9.088,2.234,13.633,3.354
			c-2.562,3.374-5.235,6.669-7.665,10.136c-5.83,8.321-11.559,16.713-17.298,25.1c-4.271,6.24-18.444,6.553-22.73,0.393
			c-0.584-0.841-1-2.363-0.639-3.201c4.798-11.147,7.113-23.959,18.476-30.979c4.533-2.801,9.933-4.194,14.938-6.228
			C268.247,502.501,268.445,502.975,268.641,503.447z"/>
		<path fill="rgba(0, 0, 0, 0)" d="M177.484,544.234c-1.394-0.076-2.814,0.008-4.173-0.246c-10.869-2.008-12.096-4.829-5.623-13.603
			c7.091-9.604,12.454-21.265,24.961-25.102c4.142-1.269,10.863-1.369,13.296,1.081c2.354,2.373,1.686,8.973,0.556,13.241
			c-1.205,4.55-4.417,8.599-6.914,12.769C194.6,540.701,187.029,544.323,177.484,544.234z"/>
		<path fill="rgba(0, 0, 0, 0)" d="M444.865,545.289c-10.949,0.275-15.443-5.046-12.516-13.127c2.501-6.914,4.938-14.396,9.529-19.834
			c3.613-4.283,10.205-7.094,15.944-8.27c7.08-1.449,11.876,6.496,8.582,12.932c-3.558,6.952-6.682,14.256-11.211,20.528
			C452.445,541.324,447.397,543.469,444.865,545.289z"/>
		<path fill="rgba(0, 0, 0, 0)" d="M396.674,501.547c2.842,0.877,6.431,0.997,8.307,2.852c1.742,1.719,3.06,5.961,2.121,7.93
			c-3.783,7.947-8.545,15.429-12.883,23.119c-3.306,5.857-7.475,10.016-14.984,8.856c-5.988-0.923-9.253-5.23-7.111-10.909
			c2.941-7.795,5.767-15.85,10.225-22.777c2.811-4.365,8.517-6.865,12.924-10.204C395.738,500.792,396.205,501.17,396.674,501.547z"
			/>
		<path fill="rgba(0, 0, 0, 0)" d="M336.935,317.188c-2.396-2.014-5.17-3.389-6.468-5.622c-3.86-6.631-7.205-13.566-10.624-20.446
			c-3.176-6.382-1.954-14.863,3.555-19.083c2.173-1.664,5.943-1.245,8.987-1.774c0.33,2.428,1.574,5.185,0.842,7.235
			c-4.306,12.045,1.803,21.09,7.885,30.321c1.018,1.543,2.014,4.008,1.454,5.43C341.977,314.747,339.507,315.504,336.935,317.188z"
			/>
		<path fill="rgba(0, 0, 0, 0)" d="M167.556,308.573c29.407,5.339,58.814,10.683,88.223,16.022c-0.088,0.518-0.175,1.036-0.263,1.554
			c-29.409-4.952-58.815-9.902-88.225-14.854C167.379,310.388,167.468,309.48,167.556,308.573z"/>
		<path fill="rgba(0, 0, 0, 0)" d="M365.576,287.418c-8.345-2.894-7.377-10.688-11.514-14.948c0.35-0.84,0.699-1.68,1.05-2.52
			c3.188,0.531,7.114,0.141,9.315,1.904c1.578,1.263,0.922,5.405,1.119,8.271C365.686,282.094,365.576,284.079,365.576,287.418z"/>
		<path fill="rgba(0, 0, 0, 0)" d="M332.011,403.795c1.499-0.989,2.995-1.979,4.474-2.966c3.237-1.425,6.494-2.851,9.749-4.276
			C343.311,404.156,338.512,405.994,332.011,403.795z"/>
		<path fill="rgba(0, 0, 0, 0)" d="M344.627,409.709c-4.566,1.701-9.131,3.402-13.697,5.104c-0.313-0.807-0.621-1.613-0.932-2.421
			c4.523-1.808,9.05-3.614,13.572-5.425C343.922,407.881,344.273,408.795,344.627,409.709z"/>
	</g>
</g>
</svg>
