<?xml version="1.0" encoding="utf-8"?>
<!-- Generator: Adobe Illustrator 16.0.0, SVG Export Plug-In . SVG Version: 6.00 Build 0)  -->
<!DOCTYPE svg PUBLIC "-//W3C//DTD SVG 1.1//EN" "http://www.w3.org/Graphics/SVG/1.1/DTD/svg11.dtd">
<svg version="1.1"
	 id="Layer_1" xmlns:dc="http://purl.org/dc/elements/1.1/" xmlns:cc="http://creativecommons.org/ns#" xmlns:rdf="http://www.w3.org/1999/02/22-rdf-syntax-ns#" xmlns:svg="http://www.w3.org/2000/svg" xmlns:sodipodi="http://sodipodi.sourceforge.net/DTD/sodipodi-0.dtd" xmlns:inkscape="http://www.inkscape.org/namespaces/inkscape" inkscape:version="0.48.1 " sodipodi:docname="Ohio_University_Logo.svg"
	 xmlns="http://www.w3.org/2000/svg" xmlns:xlink="http://www.w3.org/1999/xlink" x="0px" y="0px" width="170.384px"
	 height="65.399px" viewBox="152.335 21.798 170.384 65.399" enable-background="new 152.335 21.798 170.384 65.399"
	 xml:space="preserve">
<sodipodi:namedview  id="namedview123" borderopacity="1" pagecolor="#ffffff" bordercolor="#666666" objecttolerance="10" gridtolerance="10" guidetolerance="10" showgrid="false" fit-margin-top="0" fit-margin-left="0" inkscape:zoom="4.7839804" inkscape:cx="161.99899" inkscape:cy="43.702999" inkscape:pageopacity="0" inkscape:window-width="1680" inkscape:pageshadow="2" inkscape:window-height="994" fit-margin-right="0" fit-margin-bottom="0" inkscape:window-x="-4" inkscape:window-y="-4" inkscape:window-maximized="1" inkscape:current-layer="Layer_1">
	</sodipodi:namedview>
<g id="g3931" transform="matrix(0.99282552,0,0,0.99282552,-6.4010366,-4.5460657)">
	<path id="path95" inkscape:connector-curvature="0" fill="rgba(256, 256, 256, 0.5)" d="M258.204,78.14v5.444c1.771-0.133,3.541-0.895,3.541-2.95
		C261.744,78.673,259.916,78.14,258.204,78.14L258.204,78.14z M262.372,88.663c-0.728-1.009-1.33-2.042-1.599-2.547
		c-0.895-1.714-0.761-1.6-2.569-1.865v1.903c0,2.589-0.114,3.463,2.951,3.692v0.533h-7.977v-0.533
		c2.266-0.381,2.514-0.247,2.514-3.692V81.09c0-2.568-0.134-2.93-2.514-3.121v-0.533h5.919c2.342,0,5.502,0,5.502,3.028
		c0,1.504-1.143,2.608-2.475,3.122l2.034,3.732c1.507,2.535,4.224,4.275,7.387,4.386c0.299,0.011,0.596,0.006,0.888-0.013
		c-1.207,0.421-2.523,0.586-3.878,0.445C266.014,91.867,263.818,90.541,262.372,88.663L262.372,88.663L262.372,88.663z"/>
	<path id="path97" inkscape:connector-curvature="0" fill="rgba(256, 256, 256, 0.5)" d="M172.256,77.904c1.789,0.361,2.703,0.248,2.76,2.284
		l0.133,4.607c0.077,2.36-0.397,4.645-3.539,4.645c-1.333,0-2.875-0.456-3.637-1.617c-0.609-0.952-0.552-2.455-0.552-3.561v-2.666
		c0-2.589-0.114-3.464,2.513-3.693V77.37h-7.538v0.533c2.265,0.383,2.512,0.249,2.512,3.693v3.009c0,1.598-0.19,3.445,1.143,4.645
		c1.123,1.009,2.912,1.39,4.397,1.39c1.58,0,3.312-0.399,4.435-1.58c1.104-1.142,1.143-2.854,1.198-4.359l0.134-2.853
		c0.151-3.179,0.151-3.464,1.98-3.94l0.795-0.006l0.068-0.526h-6.803L172.256,77.904L172.256,77.904L172.256,77.904z"/>
	<path id="path99" inkscape:connector-curvature="0" fill="rgba(256, 256, 256, 0.5)" d="M185.026,87.022c0,2.57-0.95,2.494-2.341,2.761v0.533h6.244
		v-0.533c-2.248-0.476-2.668-0.629-2.742-2.97c-0.077-2.075-0.17-4.074-0.113-6.208c3.141,3.391,10.395,11.785,10.395,11.785V81.958
		c0-3.102,0.094-3.901,1.77-4.054v-0.533h-5.786v0.533c2.245,0.305,2.817,0.59,2.854,2.854l0.115,6.055l-0.039,0.036
		c-2.739-3.198-6.052-6.358-8.45-9.48h-4.379v0.533c2.419,0.419,2.475,1.79,2.475,3.751v5.369H185.026L185.026,87.022z"/>
	<path id="path101" inkscape:connector-curvature="0" fill="rgba(256, 256, 256, 0.5)" d="M209.369,81.598c0-3.445,0.248-3.313,2.514-3.693v-0.532
		h-7.538v0.532c2.265,0.381,2.513,0.249,2.513,3.693v4.491c0,3.447-0.248,3.313-2.513,3.693v0.533h7.538v-0.533
		c-2.266-0.382-2.514-0.247-2.514-3.693V81.598L209.369,81.598L209.369,81.598z"/>
	<path id="path103" inkscape:connector-curvature="0" fill="rgba(256, 256, 256, 0.5)" d="M223.85,92.406l4.068-9.99
		c1.313-3.066,1.771-4.285,3.539-4.514V77.37H225.5v0.533c2.434,0.383,3.025,0.305,0.971,5.464l-1.656,4.149l-2.646-6.279
		c-1.199-2.818-1.086-2.818,1.105-3.333V77.37h-6.757v0.533c1.484,0.497,1.542,0.383,2.475,2.493L223.85,92.406L223.85,92.406z"/>
	<path id="path105" inkscape:connector-curvature="0" fill="rgba(256, 256, 256, 0.5)" d="M242.058,84.167c1.655,0,2.552-0.037,2.931,1.828h0.533
		c-0.094-1.618-0.02-3.218,0.077-4.835h-0.497c-0.477,1.731-1.332,1.865-2.97,1.865h-1.619v-4.853h1.392
		c2.073,0,3.766,0.037,3.902,2.533h0.588l0.362-3.332h-11.269v0.532c2.266,0.383,2.514,0.249,2.514,3.693v4.493
		c0,3.446-0.248,3.313-2.514,3.693v0.533h11.535c0.457-1.428,0.725-2.894,0.687-4.379h-0.57c-0.533,2.19-1.599,3.578-4.074,3.578
		c-2.531,0-2.551-0.895-2.551-2.835v-2.514h1.542l0,0H242.058z"/>
	<path id="path107" inkscape:connector-curvature="0" fill="rgba(256, 256, 256, 0.5)" d="M291.514,81.598c0-3.445,0.246-3.313,2.512-3.693v-0.532
		h-7.539v0.532c2.266,0.381,2.514,0.249,2.514,3.693v4.491c0,3.447-0.248,3.313-2.514,3.693v0.533h7.539v-0.533
		c-2.266-0.382-2.512-0.247-2.512-3.693V81.598L291.514,81.598z"/>
	<path id="path109" inkscape:connector-curvature="0" fill="rgba(256, 256, 256, 0.5)" d="M299.594,81.141c0.781-2.703,2.152-2.97,4.777-2.97v7.918
		c0,3.447-0.248,3.313-2.853,3.693v0.533h8.223v-0.533c-2.609-0.382-2.855-0.247-2.855-3.693v-7.918c2.627,0,4.035,0.267,4.797,2.97
		l0.533-0.095l-0.439-3.69h-12.28l-0.439,3.69L299.594,81.141L299.594,81.141L299.594,81.141z"/>
	<path id="path111" inkscape:connector-curvature="0" fill="rgba(256, 256, 256, 0.5)" d="M323.307,84.814l0.34-0.724l2.174-4.016
		c0.779-1.428,1.56-1.828,3.177-2.171V77.37h-5.54v0.533c1.695,0.438,2.037,0.609,0.418,3.902L322.85,83.9l-1.655-3.484
		c-1.105-2.321-0.474-2.17,0.858-2.513V77.37h-6.606v0.533c2.114,0.438,2.36,1.257,3.216,2.989l2.133,4.321v0.874
		c0,3.447-0.248,3.313-2.762,3.693v0.533h8.032V89.78c-2.872-0.229-2.76-1.106-2.76-3.693v-1.274H323.307L323.307,84.814z"/>
	<path id="path113" inkscape:connector-curvature="0" fill="rgba(256, 256, 256, 0.5)" d="M276.109,90.64c2.435,0,5.027-1.142,5.027-3.883
		c0-3.98-6.262-3.768-6.262-6.854c0-1.121,0.779-1.979,1.943-1.979c1.959,0,2.418,1.733,2.778,3.293h0.57l0.172-3.313
		c-0.971-0.57-2.094-0.856-3.236-0.856c-2.321,0-4.74,1.409-4.74,3.94c0,3.769,6.265,3.503,6.265,6.72
		c0,1.235-0.933,2.056-2.19,2.056c-2.247,0-3.635-2.113-4.264-3.98l-0.59,0.114l0.654,3.588
		C273.326,90.225,274.705,90.61,276.109,90.64L276.109,90.64L276.109,90.64z"/>
	<path id="path115" inkscape:connector-curvature="0" fill="rgba(256, 256, 256, 0.5)" d="M310.276,28.872c-9.229,0-12.935,9.017-12.935,16.263
		c0,8.32,4.401,18.947,14.064,18.947c8.856,0,12.772-9.018,12.772-16.692C324.02,37.889,318.49,28.872,310.276,28.872
		L310.276,28.872z M310.707,26.535c14.503,0,20.791,9.857,20.791,19.942c0.002,12.181-8.838,19.943-20.734,19.943
		c-11.955,0-20.738-7.762-20.738-19.999C290.027,34.354,298.864,26.535,310.707,26.535L310.707,26.535L310.707,26.535z"/>
	<path id="path117" inkscape:connector-curvature="0" fill="rgba(256, 256, 256, 0.5)" d="M180.133,28.872c-9.233,0-12.936,9.017-12.936,16.263
		c0,8.32,4.401,18.947,14.063,18.947c8.856,0,12.772-9.018,12.772-16.692C193.873,37.889,188.344,28.872,180.133,28.872
		L180.133,28.872z M180.561,26.535c14.504,0,20.792,9.858,20.792,19.942c0,12.181-8.839,19.942-20.735,19.942
		c-11.954,0-20.735-7.763-20.735-19.999C159.881,34.354,168.72,26.535,180.561,26.535L180.561,26.535z"/>
	<path id="path119" inkscape:connector-curvature="0" fill="rgba(256, 256, 256, 0.5)" d="M275.862,36.482c0.169-5.85,0.226-7.554,7.041-8.462v-0.852
		H263.82v0.852c6.815,0.909,6.871,2.612,7.043,8.462v19.993c-0.172,5.852-0.228,7.554-7.043,8.462v0.853h19.082v-0.853
		c-6.815-0.908-6.873-2.612-7.041-8.462V36.482L275.862,36.482L275.862,36.482z"/>
	<path id="path121" inkscape:connector-curvature="0" fill="rgba(256, 256, 256, 0.5)" d="M220.618,36.482v6.282h22.586l0.002-6.282
		c-0.173-5.85-0.23-7.554-7.044-8.462v-0.852h19.082v0.852c-6.814,0.909-6.871,2.612-7.042,8.462v19.993
		c0.171,5.852,0.228,7.554,7.042,8.462v0.853h-19.082v-0.853c6.814-0.908,6.871-2.612,7.044-8.462l-0.002-10.155h-22.586v10.155
		c0.169,5.852,0.226,7.554,7.043,8.462v0.853h-19.083v-0.853c6.815-0.908,6.875-2.612,7.043-8.462V36.482
		c-0.168-5.85-0.225-7.554-7.043-8.462v-0.852h19.083v0.852C220.844,28.928,220.787,30.632,220.618,36.482L220.618,36.482z"/>
</g>
</svg>
